<svg width="84" height="21" viewBox="0 0 84 21" fill="none" xmlns="http://www.w3.org/2000/svg">
<path d="M82.3333 6L75 13.3333L71.6666 10" stroke="#18DF80" stroke-linecap="round" stroke-linejoin="round"/>
<path d="M5.488 15.126C4.51733 15.126 3.68667 14.9207 2.996 14.51C2.30533 14.0993 1.77333 13.516 1.4 12.76C1.036 12.004 0.854 11.1033 0.854 10.058C0.854 9.022 1.036 8.126 1.4 7.37C1.77333 6.614 2.30533 6.03067 2.996 5.62C3.68667 5.20933 4.51733 5.004 5.488 5.004C6.16933 5.004 6.79467 5.11133 7.364 5.326C7.94267 5.54067 8.43267 5.85333 8.834 6.264L8.386 7.202C7.95667 6.80067 7.50867 6.51133 7.042 6.334C6.58467 6.14733 6.076 6.054 5.516 6.054C4.40533 6.054 3.556 6.404 2.968 7.104C2.38 7.804 2.086 8.78867 2.086 10.058C2.086 11.3367 2.38 12.326 2.968 13.026C3.556 13.726 4.40533 14.076 5.516 14.076C6.076 14.076 6.58467 13.9873 7.042 13.81C7.50867 13.6233 7.95667 13.3293 8.386 12.928L8.834 13.866C8.43267 14.2673 7.94267 14.58 7.364 14.804C6.79467 15.0187 6.16933 15.126 5.488 15.126ZM12.8197 15.126C12.1571 15.126 11.5831 14.9813 11.0977 14.692C10.6124 14.4027 10.2344 13.9967 9.96373 13.474C9.7024 12.942 9.57173 12.3167 9.57173 11.598C9.57173 10.8793 9.7024 10.2587 9.96373 9.736C10.2344 9.204 10.6124 8.79333 11.0977 8.504C11.5831 8.21467 12.1571 8.07 12.8197 8.07C13.4731 8.07 14.0424 8.21467 14.5277 8.504C15.0224 8.79333 15.4004 9.204 15.6617 9.736C15.9324 10.2587 16.0677 10.8793 16.0677 11.598C16.0677 12.3167 15.9324 12.942 15.6617 13.474C15.4004 13.9967 15.0224 14.4027 14.5277 14.692C14.0424 14.9813 13.4731 15.126 12.8197 15.126ZM12.8197 14.216C13.4544 14.216 13.9631 13.992 14.3457 13.544C14.7284 13.0867 14.9197 12.438 14.9197 11.598C14.9197 10.7487 14.7284 10.1 14.3457 9.652C13.9631 9.204 13.4544 8.98 12.8197 8.98C12.1757 8.98 11.6624 9.204 11.2797 9.652C10.9064 10.1 10.7197 10.7487 10.7197 11.598C10.7197 12.438 10.9064 13.0867 11.2797 13.544C11.6624 13.992 12.1757 14.216 12.8197 14.216ZM17.771 15V8.196H18.877V9.358C19.101 8.92867 19.4184 8.60667 19.829 8.392C20.2397 8.17733 20.7017 8.07 21.215 8.07C22.8297 8.07 23.637 8.966 23.637 10.758V15H22.503V10.828C22.503 10.1933 22.377 9.73133 22.125 9.442C21.8824 9.14333 21.4904 8.994 20.949 8.994C20.3237 8.994 19.8244 9.19 19.451 9.582C19.087 9.96467 18.905 10.478 18.905 11.122V15H17.771ZM26.0921 15V9.078H24.7481V8.196H26.0921V7.958C26.0921 7.05267 26.3161 6.36667 26.7641 5.9C27.2214 5.43333 27.9214 5.172 28.8641 5.116L29.3821 5.088L29.4521 5.97L28.8641 5.998C28.2854 6.03533 27.8654 6.208 27.6041 6.516C27.3521 6.81467 27.2261 7.24867 27.2261 7.818V8.196H31.4261V15H30.2921V9.078H27.2261V15H26.0921ZM30.1661 6.502V5.228H31.5521V6.502H30.1661ZM33.5484 15V8.196H34.6544V9.414C35.0184 8.59267 35.765 8.14 36.8944 8.056L37.3004 8.014L37.3844 8.994L36.6704 9.078C36.0264 9.134 35.5364 9.33933 35.2004 9.694C34.8644 10.0393 34.6964 10.5153 34.6964 11.122V15H33.5484ZM38.594 15V8.196H39.7V9.344C39.9053 8.93333 40.19 8.62067 40.554 8.406C40.918 8.182 41.3426 8.07 41.828 8.07C42.892 8.07 43.5733 8.532 43.872 9.456C44.0773 9.02667 44.3806 8.69067 44.782 8.448C45.1833 8.196 45.6453 8.07 46.168 8.07C47.68 8.07 48.436 8.966 48.436 10.758V15H47.302V10.814C47.302 10.1887 47.19 9.73133 46.966 9.442C46.7513 9.14333 46.392 8.994 45.888 8.994C45.3373 8.994 44.8986 9.19 44.572 9.582C44.2453 9.974 44.082 10.4967 44.082 11.15V15H42.948V10.814C42.948 10.1887 42.836 9.73133 42.612 9.442C42.3973 9.14333 42.038 8.994 41.534 8.994C40.974 8.994 40.5306 9.19 40.204 9.582C39.8866 9.974 39.728 10.4967 39.728 11.15V15H38.594ZM53.6222 15.126C52.5489 15.126 51.6995 14.8133 51.0742 14.188C50.4489 13.5533 50.1362 12.6947 50.1362 11.612C50.1362 10.912 50.2762 10.296 50.5562 9.764C50.8362 9.22267 51.2189 8.80733 51.7042 8.518C52.1989 8.21933 52.7682 8.07 53.4122 8.07C54.3362 8.07 55.0595 8.36867 55.5822 8.966C56.1049 9.554 56.3662 10.366 56.3662 11.402V11.836H51.2422C51.2795 12.6107 51.5035 13.2033 51.9142 13.614C52.3249 14.0153 52.8942 14.216 53.6222 14.216C54.0329 14.216 54.4249 14.1553 54.7982 14.034C55.1715 13.9033 55.5262 13.6933 55.8622 13.404L56.2542 14.202C55.9462 14.4913 55.5542 14.72 55.0782 14.888C54.6022 15.0467 54.1169 15.126 53.6222 15.126ZM53.4402 8.91C52.7962 8.91 52.2875 9.11067 51.9142 9.512C51.5409 9.91333 51.3215 10.4407 51.2562 11.094H55.3862C55.3582 10.4033 55.1762 9.86667 54.8402 9.484C54.5135 9.10133 54.0469 8.91 53.4402 8.91ZM60.5974 15.126C59.9907 15.126 59.4587 14.9813 59.0014 14.692C58.5534 14.4027 58.2034 13.9967 57.9514 13.474C57.7087 12.942 57.5874 12.3167 57.5874 11.598C57.5874 10.87 57.7087 10.2447 57.9514 9.722C58.2034 9.19 58.5534 8.784 59.0014 8.504C59.4587 8.21467 59.9907 8.07 60.5974 8.07C61.1294 8.07 61.596 8.18667 61.9974 8.42C62.408 8.65333 62.7114 8.97533 62.9074 9.386V5.13H64.0414V15H62.9354V13.754C62.7394 14.1833 62.436 14.5193 62.0254 14.762C61.6147 15.0047 61.1387 15.126 60.5974 15.126ZM60.8354 14.216C61.47 14.216 61.9787 13.992 62.3614 13.544C62.744 13.0867 62.9354 12.438 62.9354 11.598C62.9354 10.7487 62.744 10.1 62.3614 9.652C61.9787 9.204 61.47 8.98 60.8354 8.98C60.1914 8.98 59.678 9.204 59.2954 9.652C58.922 10.1 58.7354 10.7487 58.7354 11.598C58.7354 12.438 58.922 13.0867 59.2954 13.544C59.678 13.992 60.1914 14.216 60.8354 14.216Z" fill="#18DF80"/>
</svg>
